<mxfile modified="2020-12-05T19:39:13.635Z" host="app.diagrams.net" agent="5.0 (Windows NT 10.0; Win64; x64) AppleWebKit/537.36 (KHTML, like Gecko) Chrome/87.0.4280.66 Safari/537.36" etag="BMCEgOOEGRAxeZ4eqnLU" version="13.10.9" type="github">
  <diagram id="Ht1M8jgEwFfnCIfOTk4-" name="Page-1">
    <mxGraphModel dx="1169" dy="514" grid="1" gridSize="10" guides="1" tooltips="1" connect="1" arrows="1" fold="1" page="1" pageScale="1" pageWidth="1169" pageHeight="827" math="0" shadow="0">
      <root>
        <mxCell id="0" />
        <mxCell id="1" parent="0" />
        <mxCell id="lS_9PFKMVAG02T5FLxn7-40" value="" style="outlineConnect=0;fontColor=#232F3E;gradientColor=none;fillColor=#3334B9;strokeColor=none;dashed=0;verticalLabelPosition=bottom;verticalAlign=top;align=center;html=1;fontSize=12;fontStyle=0;aspect=fixed;pointerEvents=1;shape=mxgraph.aws4.rds_mysql_instance;" vertex="1" parent="1">
          <mxGeometry x="670" y="605" width="130" height="130" as="geometry" />
        </mxCell>
        <mxCell id="lS_9PFKMVAG02T5FLxn7-52" value="" style="group" vertex="1" connectable="0" parent="1">
          <mxGeometry x="380" y="338" width="148.5" height="152" as="geometry" />
        </mxCell>
        <object label="" placeholders="1" id="lS_9PFKMVAG02T5FLxn7-47">
          <mxCell style="shape=image;html=1;verticalAlign=top;verticalLabelPosition=bottom;labelBackgroundColor=#ffffff;imageAspect=0;aspect=fixed;image=https://cdn4.iconfinder.com/data/icons/IMPRESSIONS/mail_icons/png/128/robot.png;gradientColor=#ffffff;fontColor=#FFFFFF;" vertex="1" parent="lS_9PFKMVAG02T5FLxn7-52">
            <mxGeometry width="124.93939393939395" height="124.93939393939395" as="geometry" />
          </mxCell>
        </object>
        <mxCell id="lS_9PFKMVAG02T5FLxn7-51" value="Scraper" style="text;html=1;strokeColor=none;fillColor=none;align=center;verticalAlign=middle;whiteSpace=wrap;rounded=0;labelBackgroundColor=#ffffff;" vertex="1" parent="lS_9PFKMVAG02T5FLxn7-52">
          <mxGeometry x="10.26296875" y="131.86754966887418" width="104.4140625" height="20.132450331125828" as="geometry" />
        </mxCell>
        <mxCell id="lS_9PFKMVAG02T5FLxn7-54" value="" style="group" vertex="1" connectable="0" parent="1">
          <mxGeometry x="106" y="350" width="117" height="128" as="geometry" />
        </mxCell>
        <mxCell id="lS_9PFKMVAG02T5FLxn7-42" value="" style="shape=image;html=1;verticalAlign=top;verticalLabelPosition=bottom;labelBackgroundColor=#ffffff;imageAspect=0;aspect=fixed;image=https://cdn1.iconfinder.com/data/icons/system-shade-circles/512/tor-128.png;gradientColor=#ffffff;fontColor=#FFFFFF;" vertex="1" parent="lS_9PFKMVAG02T5FLxn7-54">
          <mxGeometry width="110.51982378854626" height="110.51982378854626" as="geometry" />
        </mxCell>
        <mxCell id="lS_9PFKMVAG02T5FLxn7-53" value="&lt;span style=&quot;background-color: rgb(255 , 255 , 255)&quot;&gt;tor- socks proxy&lt;/span&gt;" style="text;html=1;strokeColor=none;fillColor=none;align=center;verticalAlign=middle;whiteSpace=wrap;rounded=0;fontColor=#000000;" vertex="1" parent="lS_9PFKMVAG02T5FLxn7-54">
          <mxGeometry x="8.2265625" y="110.70270270270271" width="100.54687500000001" height="17.2972972972973" as="geometry" />
        </mxCell>
        <mxCell id="lS_9PFKMVAG02T5FLxn7-58" value="" style="group" vertex="1" connectable="0" parent="1">
          <mxGeometry x="93" y="120" width="143" height="130" as="geometry" />
        </mxCell>
        <mxCell id="lS_9PFKMVAG02T5FLxn7-35" value="" style="outlineConnect=0;fontColor=#232F3E;gradientColor=none;strokeColor=none;dashed=0;verticalLabelPosition=bottom;verticalAlign=top;align=center;html=1;fontSize=12;fontStyle=0;aspect=fixed;pointerEvents=1;shape=mxgraph.aws4.fleet_management;fillColor=#999999;" vertex="1" parent="lS_9PFKMVAG02T5FLxn7-58">
          <mxGeometry width="103.46938775510205" height="103.46938775510205" as="geometry" />
        </mxCell>
        <mxCell id="lS_9PFKMVAG02T5FLxn7-55" value="&lt;span style=&quot;background-color: rgb(255 , 255 , 255)&quot;&gt;darknet web&lt;/span&gt;" style="text;html=1;strokeColor=none;fillColor=none;align=center;verticalAlign=middle;whiteSpace=wrap;rounded=0;fontColor=#000000;" vertex="1" parent="lS_9PFKMVAG02T5FLxn7-58">
          <mxGeometry x="-19.77" y="103.46938775510205" width="143" height="26.530612244897956" as="geometry" />
        </mxCell>
        <mxCell id="lS_9PFKMVAG02T5FLxn7-60" value="" style="group" vertex="1" connectable="0" parent="1">
          <mxGeometry x="94.5" y="610" width="140" height="120" as="geometry" />
        </mxCell>
        <mxCell id="lS_9PFKMVAG02T5FLxn7-44" value="" style="pointerEvents=1;shadow=0;dashed=0;html=1;strokeColor=none;fillColor=#505050;labelPosition=center;verticalLabelPosition=bottom;verticalAlign=top;outlineConnect=0;align=center;shape=mxgraph.office.concepts.website;fontColor=#FFFFFF;" vertex="1" parent="lS_9PFKMVAG02T5FLxn7-60">
          <mxGeometry x="12" width="117.99999999999999" height="94.08" as="geometry" />
        </mxCell>
        <mxCell id="lS_9PFKMVAG02T5FLxn7-59" value="&lt;span style=&quot;background-color: rgb(255 , 255 , 255)&quot;&gt;http/s web&lt;/span&gt;" style="text;html=1;strokeColor=none;fillColor=none;align=center;verticalAlign=middle;whiteSpace=wrap;rounded=0;fontColor=#000000;" vertex="1" parent="lS_9PFKMVAG02T5FLxn7-60">
          <mxGeometry x="1" y="81.6" width="140" height="38.400000000000006" as="geometry" />
        </mxCell>
        <mxCell id="lS_9PFKMVAG02T5FLxn7-63" value="" style="group" vertex="1" connectable="0" parent="1">
          <mxGeometry x="650" y="330.38" width="222.88" height="210" as="geometry" />
        </mxCell>
        <mxCell id="lS_9PFKMVAG02T5FLxn7-41" value="" style="aspect=fixed;perimeter=ellipsePerimeter;html=1;align=center;shadow=0;dashed=0;spacingTop=3;image;image=img/lib/active_directory/server_farm.svg;gradientColor=#ffffff;fontColor=#FFFFFF;" vertex="1" parent="lS_9PFKMVAG02T5FLxn7-63">
          <mxGeometry width="174.57831325301203" height="174.57831325301203" as="geometry" />
        </mxCell>
        <mxCell id="lS_9PFKMVAG02T5FLxn7-61" value="&lt;span style=&quot;background-color: rgb(255 , 255 , 255)&quot;&gt;server -nodejs&lt;/span&gt;" style="text;html=1;strokeColor=none;fillColor=none;align=center;verticalAlign=middle;whiteSpace=wrap;rounded=0;fontColor=#000000;" vertex="1" parent="lS_9PFKMVAG02T5FLxn7-63">
          <mxGeometry x="-16.772962786006264" y="174.58506024096383" width="215.3429951690821" height="33.73493975903614" as="geometry" />
        </mxCell>
        <mxCell id="lS_9PFKMVAG02T5FLxn7-65" value="" style="group" vertex="1" connectable="0" parent="1">
          <mxGeometry x="982.5" y="90" width="130" height="138" as="geometry" />
        </mxCell>
        <mxCell id="lS_9PFKMVAG02T5FLxn7-48" value="" style="points=[[0.35,0,0],[0.98,0.51,0],[1,0.71,0],[0.67,1,0],[0,0.795,0],[0,0.65,0]];verticalLabelPosition=bottom;html=1;verticalAlign=top;aspect=fixed;align=center;pointerEvents=1;shape=mxgraph.cisco19.user;fillColor=#005073;strokeColor=none;fontColor=#FFFFFF;" vertex="1" parent="lS_9PFKMVAG02T5FLxn7-65">
          <mxGeometry width="106.15384615384616" height="106.15384615384616" as="geometry" />
        </mxCell>
        <mxCell id="lS_9PFKMVAG02T5FLxn7-64" value="&lt;font style=&quot;font-size: 14px&quot;&gt;User&lt;/font&gt;" style="text;html=1;strokeColor=none;fillColor=none;align=center;verticalAlign=middle;whiteSpace=wrap;rounded=0;fontColor=#000000;labelBackgroundColor=#ffffff;" vertex="1" parent="lS_9PFKMVAG02T5FLxn7-65">
          <mxGeometry y="95.53846153846153" width="117" height="42.46153846153846" as="geometry" />
        </mxCell>
        <mxCell id="lS_9PFKMVAG02T5FLxn7-66" value="" style="group" vertex="1" connectable="0" parent="1">
          <mxGeometry x="980" y="360" width="135" height="150.75" as="geometry" />
        </mxCell>
        <mxCell id="UEzPUAAOIrF-is8g5C7q-109" value="Client - React&lt;br&gt;" style="outlineConnect=0;gradientColor=none;fontColor=#545B64;strokeColor=none;fillColor=#879196;dashed=0;verticalLabelPosition=bottom;verticalAlign=top;align=center;html=1;fontSize=12;fontStyle=0;aspect=fixed;shape=mxgraph.aws4.illustration_desktop;pointerEvents=1;labelBackgroundColor=#ffffff;" parent="lS_9PFKMVAG02T5FLxn7-66" vertex="1">
          <mxGeometry width="121.0415094339623" height="110.14965260839136" as="geometry" />
        </mxCell>
        <mxCell id="lS_9PFKMVAG02T5FLxn7-43" value="" style="shape=image;html=1;verticalAlign=top;verticalLabelPosition=bottom;labelBackgroundColor=#ffffff;imageAspect=0;aspect=fixed;image=https://cdn4.iconfinder.com/data/icons/logos-3/600/React.js_logo-128.png;gradientColor=#ffffff;fontColor=#FFFFFF;" vertex="1" parent="lS_9PFKMVAG02T5FLxn7-66">
          <mxGeometry x="39.312670627910705" y="17.735294117647058" width="50.539252373261924" height="50.539252373261924" as="geometry" />
        </mxCell>
        <mxCell id="lS_9PFKMVAG02T5FLxn7-70" style="edgeStyle=orthogonalEdgeStyle;shape=flexArrow;rounded=0;orthogonalLoop=1;jettySize=auto;html=1;exitX=1;exitY=0.5;exitDx=0;exitDy=0;entryX=0;entryY=0.521;entryDx=0;entryDy=0;entryPerimeter=0;strokeColor=#000000;fontColor=#000000;fillColor=#ffffff;" edge="1" parent="1" source="lS_9PFKMVAG02T5FLxn7-41" target="UEzPUAAOIrF-is8g5C7q-109">
          <mxGeometry relative="1" as="geometry" />
        </mxCell>
        <mxCell id="lS_9PFKMVAG02T5FLxn7-72" style="edgeStyle=orthogonalEdgeStyle;shape=flexArrow;rounded=0;orthogonalLoop=1;jettySize=auto;html=1;exitX=0;exitY=0.25;exitDx=0;exitDy=0;entryX=1;entryY=0.25;entryDx=0;entryDy=0;strokeColor=#000000;fontColor=#000000;fillColor=#ffffff;" edge="1" parent="1" source="lS_9PFKMVAG02T5FLxn7-41" target="lS_9PFKMVAG02T5FLxn7-47">
          <mxGeometry relative="1" as="geometry" />
        </mxCell>
        <mxCell id="lS_9PFKMVAG02T5FLxn7-73" style="edgeStyle=orthogonalEdgeStyle;shape=flexArrow;rounded=0;orthogonalLoop=1;jettySize=auto;html=1;exitX=1;exitY=0.75;exitDx=0;exitDy=0;strokeColor=#000000;fontColor=#000000;fillColor=#ffffff;" edge="1" parent="1" source="lS_9PFKMVAG02T5FLxn7-47" target="lS_9PFKMVAG02T5FLxn7-41">
          <mxGeometry relative="1" as="geometry" />
        </mxCell>
        <mxCell id="lS_9PFKMVAG02T5FLxn7-74" style="edgeStyle=orthogonalEdgeStyle;shape=flexArrow;rounded=0;orthogonalLoop=1;jettySize=auto;html=1;entryX=1;entryY=0.5;entryDx=0;entryDy=0;strokeColor=#000000;fontColor=#000000;fillColor=#ffffff;" edge="1" parent="1" target="lS_9PFKMVAG02T5FLxn7-42">
          <mxGeometry relative="1" as="geometry">
            <mxPoint x="380" y="405" as="sourcePoint" />
          </mxGeometry>
        </mxCell>
        <mxCell id="lS_9PFKMVAG02T5FLxn7-75" style="edgeStyle=orthogonalEdgeStyle;shape=flexArrow;rounded=0;orthogonalLoop=1;jettySize=auto;html=1;exitX=0.5;exitY=0;exitDx=0;exitDy=0;strokeColor=#000000;fontColor=#000000;entryX=0.621;entryY=1.327;entryDx=0;entryDy=0;entryPerimeter=0;fillColor=#ffffff;" edge="1" parent="1" source="lS_9PFKMVAG02T5FLxn7-42" target="lS_9PFKMVAG02T5FLxn7-55">
          <mxGeometry relative="1" as="geometry" />
        </mxCell>
        <mxCell id="lS_9PFKMVAG02T5FLxn7-77" style="edgeStyle=orthogonalEdgeStyle;shape=flexArrow;rounded=0;orthogonalLoop=1;jettySize=auto;html=1;exitX=0.5;exitY=1;exitDx=0;exitDy=0;strokeColor=#000000;fontColor=#000000;fillColor=#ffffff;" edge="1" parent="1" source="lS_9PFKMVAG02T5FLxn7-53" target="lS_9PFKMVAG02T5FLxn7-44">
          <mxGeometry relative="1" as="geometry" />
        </mxCell>
        <mxCell id="lS_9PFKMVAG02T5FLxn7-78" style="edgeStyle=orthogonalEdgeStyle;shape=flexArrow;rounded=0;orthogonalLoop=1;jettySize=auto;html=1;strokeColor=#000000;fontColor=#000000;fillColor=#ffffff;" edge="1" parent="1" target="lS_9PFKMVAG02T5FLxn7-40">
          <mxGeometry relative="1" as="geometry">
            <mxPoint x="735" y="539" as="sourcePoint" />
          </mxGeometry>
        </mxCell>
        <mxCell id="lS_9PFKMVAG02T5FLxn7-80" style="edgeStyle=orthogonalEdgeStyle;shape=flexArrow;rounded=0;orthogonalLoop=1;jettySize=auto;html=1;entryX=0.5;entryY=1;entryDx=0;entryDy=0;strokeColor=#000000;fontColor=#000000;fillColor=#ffffff;" edge="1" parent="1" target="lS_9PFKMVAG02T5FLxn7-64">
          <mxGeometry relative="1" as="geometry">
            <mxPoint x="1041" y="360" as="sourcePoint" />
          </mxGeometry>
        </mxCell>
      </root>
    </mxGraphModel>
  </diagram>
</mxfile>
